<svg width="167" height="168" viewBox="0 0 167 168" fill="none" xmlns="http://www.w3.org/2000/svg">
<path d="M83.4998 167.333C37.4748 167.333 0.166504 130.025 0.166504 83.9998C0.166504 37.9748 37.4748 0.666504 83.4998 0.666504C129.525 0.666504 166.833 37.9748 166.833 83.9998C166.833 130.025 129.525 167.333 83.4998 167.333ZM83.4998 150.667C101.181 150.667 118.138 143.643 130.64 131.14C143.143 118.638 150.167 101.681 150.167 83.9998C150.167 66.3187 143.143 49.3618 130.64 36.8594C118.138 24.357 101.181 17.3332 83.4998 17.3332C65.8187 17.3332 48.8618 24.357 36.3594 36.8594C23.857 49.3618 16.8332 66.3187 16.8332 83.9998C16.8332 101.681 23.857 118.638 36.3594 131.14C48.8618 143.643 65.8187 150.667 83.4998 150.667ZM75.1915 117.333L39.8332 81.9748L51.6165 70.1915L75.1915 93.7665L122.325 46.6248L134.117 58.4082L75.1915 117.333Z" fill="#032160"/>
</svg>
