<svg width="44" height="44" viewBox="0 0 44 44" fill="none" xmlns="http://www.w3.org/2000/svg">
<path d="M0.166992 43.833C0.166992 39.4127 1.92294 35.1735 5.04855 32.0479C8.17415 28.9223 12.4134 27.1663 16.8337 27.1663C21.2539 27.1663 25.4932 28.9223 28.6188 32.0479C31.7444 35.1735 33.5003 39.4127 33.5003 43.833H29.3337C29.3337 40.5178 28.0167 37.3384 25.6725 34.9942C23.3283 32.65 20.1489 31.333 16.8337 31.333C13.5185 31.333 10.339 32.65 7.99482 34.9942C5.65062 37.3384 4.33366 40.5178 4.33366 43.833H0.166992ZM16.8337 25.083C9.92741 25.083 4.33366 19.4893 4.33366 12.583C4.33366 5.67676 9.92741 0.0830078 16.8337 0.0830078C23.7399 0.0830078 29.3337 5.67676 29.3337 12.583C29.3337 19.4893 23.7399 25.083 16.8337 25.083ZM16.8337 20.9163C21.4378 20.9163 25.167 17.1872 25.167 12.583C25.167 7.97884 21.4378 4.24967 16.8337 4.24967C12.2295 4.24967 8.50033 7.97884 8.50033 12.583C8.50033 17.1872 12.2295 20.9163 16.8337 20.9163ZM34.092 28.6309C37.0198 29.9495 39.5044 32.0856 41.2474 34.7824C42.9903 37.4792 43.9173 40.622 43.917 43.833H39.7503C39.7508 41.4246 39.0556 39.0674 37.7484 37.0446C36.4412 35.0219 34.5776 33.4198 32.3816 32.4309L34.0899 28.6309H34.092ZM32.6587 5.11009C34.7577 5.97529 36.5523 7.44454 37.8149 9.3314C39.0775 11.2183 39.7512 13.4377 39.7503 15.708C39.7512 18.567 38.683 21.3231 36.7556 23.4347C34.8282 25.5464 32.1809 26.8611 29.3337 27.1205V22.9268C30.8773 22.7057 32.3094 21.9955 33.4197 20.9006C34.53 19.8057 35.2601 18.3837 35.5027 16.8433C35.7454 15.3029 35.4878 13.7253 34.7678 12.3421C34.0478 10.9589 32.9033 9.8429 31.5024 9.15801L32.6587 5.11009Z" fill="#030303"/>
</svg>
