<svg width="42" height="38" viewBox="0 0 42 38" fill="none" xmlns="http://www.w3.org/2000/svg">
<path d="M41.8337 35.6667C41.8337 36.2192 41.6142 36.7491 41.2235 37.1398C40.8328 37.5305 40.3029 37.75 39.7503 37.75H2.25033C1.69779 37.75 1.16789 37.5305 0.777186 37.1398C0.386486 36.7491 0.166992 36.2192 0.166992 35.6667V2.33333C0.166992 1.7808 0.386486 1.25089 0.777186 0.860194C1.16789 0.469493 1.69779 0.25 2.25033 0.25H39.7503C40.3029 0.25 40.8328 0.469493 41.2235 0.860194C41.6142 1.25089 41.8337 1.7808 41.8337 2.33333V35.6667ZM18.917 25.25H4.33366V33.5833H18.917V25.25ZM37.667 16.9167H23.0837V33.5833H37.667V16.9167ZM18.917 4.41667H4.33366V21.0833H18.917V4.41667ZM37.667 4.41667H23.0837V12.75H37.667V4.41667Z" fill="#030303"/>
</svg>
