<svg width="24" height="22" viewBox="0 0 24 22" fill="none" xmlns="http://www.w3.org/2000/svg">
<g opacity="0.75" filter="url(#filter0_d_965_6036)">
<path d="M22 17.5C22 17.7652 21.8946 18.0196 21.7071 18.2071C21.5196 18.3946 21.2652 18.5 21 18.5H3C2.73478 18.5 2.48043 18.3946 2.29289 18.2071C2.10536 18.0196 2 17.7652 2 17.5V1.5C2 1.23478 2.10536 0.98043 2.29289 0.792893C2.48043 0.605357 2.73478 0.5 3 0.5H21C21.2652 0.5 21.5196 0.605357 21.7071 0.792893C21.8946 0.98043 22 1.23478 22 1.5V17.5ZM11 12.5H4V16.5H11V12.5ZM20 8.5H13V16.5H20V8.5ZM11 2.5H4V10.5H11V2.5ZM20 2.5H13V6.5H20V2.5Z" fill="#FBFCFD"/>
<path d="M11.5 12.5V12H11H4H3.5V12.5V16.5V17H4H11H11.5V16.5V12.5ZM20.5 8.5V8H20H13H12.5V8.5V16.5V17H13H20H20.5V16.5V8.5ZM11.5 2.5V2H11H4H3.5V2.5V10.5V11H4H11H11.5V10.5V2.5ZM20.5 2.5V2H20H13H12.5V2.5V6.5V7H13H20H20.5V6.5V2.5ZM21.5 17.5C21.5 17.6326 21.4473 17.7598 21.3536 17.8536C21.2598 17.9473 21.1326 18 21 18H3C2.86739 18 2.74021 17.9473 2.64645 17.8536C2.55268 17.7598 2.5 17.6326 2.5 17.5V1.5C2.5 1.36739 2.55268 1.24021 2.64645 1.14645C2.74021 1.05268 2.86739 1 3 1H21C21.1326 1 21.2598 1.05268 21.3536 1.14645C21.4473 1.24021 21.5 1.36739 21.5 1.5V17.5Z" stroke="#000"/>
</g>
<defs>
<filter id="filter0_d_965_6036" x="-2" y="0.5" width="28" height="26" filterUnits="userSpaceOnUse" color-interpolation-filters="sRGB">
<feFlood flood-opacity="0" result="BackgroundImageFix"/>
<feColorMatrix in="SourceAlpha" type="matrix" values="0 0 0 0 0 0 0 0 0 0 0 0 0 0 0 0 0 0 127 0" result="hardAlpha"/>
<feOffset dy="4"/>
<feGaussianBlur stdDeviation="2"/>
<feComposite in2="hardAlpha" operator="out"/>
<feColorMatrix type="matrix" values="0 0 0 0 0 0 0 0 0 0 0 0 0 0 0 0 0 0 0.25 0"/>
<feBlend mode="normal" in2="BackgroundImageFix" result="effect1_dropShadow_965_6036"/>
<feBlend mode="normal" in="SourceGraphic" in2="effect1_dropShadow_965_6036" result="shape"/>
</filter>
</defs>
</svg>
