<svg width="38" height="42" viewBox="0 0 38 42" fill="none" xmlns="http://www.w3.org/2000/svg">
<path d="M29.4167 0.166992V4.33366H35.6812C36.8229 4.33366 37.75 5.26074 37.75 6.40241V39.7649C37.75 40.9066 36.8229 41.8337 35.6812 41.8337H2.31875C1.17708 41.8337 0.25 40.9066 0.25 39.7649V6.40241C0.25 5.26074 1.17708 4.33366 2.31875 4.33366H8.58333V0.166992H29.4167ZM8.58333 8.50033H4.41667V37.667H33.5833V8.50033H29.4167V12.667H8.58333V8.50033ZM12.75 29.3337V33.5003H8.58333V29.3337H12.75ZM12.75 23.0837V27.2503H8.58333V23.0837H12.75ZM12.75 16.8337V21.0003H8.58333V16.8337H12.75ZM25.25 4.33366H12.75V8.50033H25.25V4.33366Z" fill="#030303"/>
</svg>
