<svg width="44" height="45" viewBox="0 0 44 45" fill="none" xmlns="http://www.w3.org/2000/svg">
<path d="M23.3811 27.1141V31.3195C21.2685 30.6756 19.0075 30.4781 16.7879 30.7436C14.5684 31.0091 12.4552 31.7297 10.6257 32.8451C8.79621 33.9605 7.30391 35.438 6.2741 37.1535C5.24429 38.8691 4.70704 40.7726 4.70747 42.7042L0.0390631 42.7022C0.0383386 40.2451 0.690122 37.8205 1.94447 35.6142C3.19882 33.4079 5.02244 31.4783 7.2756 29.9734C9.52876 28.4686 12.1517 27.4283 14.9433 26.9323C17.735 26.4363 20.6213 26.4978 23.3811 27.1121V27.1141ZM18.7127 24.5949C10.9748 24.5949 4.70747 19.1923 4.70747 12.5221C4.70747 5.85182 10.9748 0.449219 18.7127 0.449219C26.4506 0.449219 32.7179 5.85182 32.7179 12.5221C32.7179 19.1923 26.4506 24.5949 18.7127 24.5949ZM18.7127 20.5706C23.8713 20.5706 28.0495 16.9689 28.0495 12.5221C28.0495 8.07524 23.8713 4.4735 18.7127 4.4735C13.5541 4.4735 9.37588 8.07524 9.37588 12.5221C9.37588 16.9689 13.5541 20.5706 18.7127 20.5706ZM32.2347 38.5069L40.4862 31.3939L43.7891 34.2391L32.2347 44.1992L23.981 37.0843L27.2839 34.2391L32.2324 38.5069H32.2347Z" fill="#030303"/>
</svg>
