<svg width="50" height="18" viewBox="0 0 50 18" fill="none" xmlns="http://www.w3.org/2000/svg">
<path d="M46.2958 16.8503L45.8271 14.5066H40.5896L39.7562 16.8337L35.5583 16.842C37.5568 12.036 39.5596 7.23187 41.5667 2.42949C41.9083 1.61491 42.5146 1.20033 43.4083 1.20449C44.0917 1.21074 45.2062 1.21074 46.7542 1.20658L50 16.8441L46.2958 16.8503ZM41.7687 11.2962H45.1437L43.8833 5.42116L41.7687 11.2962ZM14.7083 1.20241L18.9292 1.20658L12.4042 16.8524L8.13125 16.8482C7.05677 12.7156 5.99565 8.57944 4.94792 4.43991C4.73958 3.61491 4.32708 3.03783 3.53333 2.76491C2.82708 2.52116 1.65 2.14616 0 1.63574V1.20866H6.74375C7.91042 1.20866 8.59167 1.77324 8.81042 2.93158C9.03125 4.09199 9.58542 7.04616 10.4771 11.7941L14.7083 1.20241ZM24.7292 1.20658L21.3917 16.8482L17.375 16.8441L20.7083 1.20241L24.7292 1.20658ZM32.875 0.916992C34.0771 0.916992 35.5917 1.29199 36.4625 1.63574L35.7583 4.87949C34.9708 4.56283 33.675 4.13574 32.5854 4.15033C31.0021 4.17741 30.0229 4.84199 30.0229 5.47949C30.0229 6.51699 31.7229 7.03991 33.4729 8.17324C35.4708 9.46491 35.7333 10.6253 35.7083 11.8857C35.6812 14.5024 33.4729 17.0837 28.8146 17.0837C26.6896 17.0524 25.9229 16.8732 24.1896 16.2587L24.9229 12.8732C26.6875 13.6128 27.4354 13.8482 28.9437 13.8482C30.325 13.8482 31.5104 13.2899 31.5208 12.317C31.5292 11.6253 31.1042 11.2816 29.5542 10.4274C28.0042 9.57116 25.8292 8.38574 25.8583 6.00658C25.8937 2.96074 28.7792 0.916992 32.8771 0.916992H32.875Z" fill="#030303"/>
</svg>
