<svg width="18" height="18" viewBox="0 0 18 18" fill="none" xmlns="http://www.w3.org/2000/svg">
<path d="M16.4994 8.70533V16.5003C16.4994 16.7213 16.4116 16.9333 16.2553 17.0896C16.099 17.2459 15.887 17.3337 15.666 17.3337H2.33269C2.11167 17.3337 1.89971 17.2459 1.74343 17.0896C1.58715 16.9333 1.49935 16.7213 1.49935 16.5003V8.70533C0.961283 8.09696 0.664813 7.3125 0.666019 6.50033V1.50033C0.666019 1.27931 0.753817 1.06735 0.910097 0.91107C1.06638 0.75479 1.27834 0.666992 1.49935 0.666992H16.4994C16.7204 0.666992 16.9323 0.75479 17.0886 0.91107C17.2449 1.06735 17.3327 1.27931 17.3327 1.50033V6.50033C17.3327 7.34533 17.0177 8.11699 16.4994 8.70533ZM14.8327 9.72866C14.2367 9.88176 13.6101 9.86722 13.0218 9.68664C12.4336 9.50606 11.9067 9.16646 11.4994 8.70533C11.1869 9.0604 10.8022 9.34471 10.3711 9.53929C9.94001 9.73386 9.47234 9.83422 8.99935 9.83366C8.52636 9.83422 8.0587 9.73386 7.62759 9.53929C7.19647 9.34471 6.81183 9.0604 6.49935 8.70533C6.09295 9.16777 5.56613 9.50831 4.97759 9.68899C4.38905 9.86967 3.7619 9.8834 3.16602 9.72866V15.667H14.8327V9.72866ZM10.666 6.50033C10.666 6.27931 10.7538 6.06735 10.9101 5.91107C11.0664 5.75479 11.2783 5.66699 11.4994 5.66699C11.7204 5.66699 11.9323 5.75479 12.0886 5.91107C12.2449 6.06735 12.3327 6.27931 12.3327 6.50033C12.3327 6.94235 12.5083 7.36628 12.8208 7.67884C13.1334 7.9914 13.5573 8.16699 13.9994 8.16699C14.4414 8.16699 14.8653 7.9914 15.1779 7.67884C15.4904 7.36628 15.666 6.94235 15.666 6.50033V2.33366H2.33269V6.50033C2.33269 6.94235 2.50828 7.36628 2.82084 7.67884C3.1334 7.9914 3.55732 8.16699 3.99935 8.16699C4.44138 8.16699 4.8653 7.9914 5.17786 7.67884C5.49042 7.36628 5.66602 6.94235 5.66602 6.50033C5.66602 6.27931 5.75382 6.06735 5.9101 5.91107C6.06638 5.75479 6.27834 5.66699 6.49935 5.66699C6.72037 5.66699 6.93233 5.75479 7.08861 5.91107C7.24489 6.06735 7.33269 6.27931 7.33269 6.50033C7.33269 6.94235 7.50828 7.36628 7.82084 7.67884C8.1334 7.9914 8.55733 8.16699 8.99935 8.16699C9.44138 8.16699 9.8653 7.9914 10.1779 7.67884C10.4904 7.36628 10.666 6.94235 10.666 6.50033Z" fill="#878787"/>
</svg>
