<svg width="48" height="46" viewBox="0 0 48 46" fill="none" xmlns="http://www.w3.org/2000/svg">
<path d="M23.9997 0.0419922L32.8039 12.9232L47.7768 17.317L38.2456 29.6712L38.6935 45.267L23.9997 40.0212L9.30599 45.267L9.75391 29.6712L0.222656 17.317L15.1956 12.9232L23.9997 0.0419922ZM23.9997 7.42533L17.7956 16.5045L7.24349 19.5982L13.9622 28.3024L13.6435 39.292L23.9997 35.5962L34.3539 39.292L34.0372 28.3024L40.7539 19.5982L30.2039 16.5045L23.9997 7.42533ZM19.8331 24.0003C19.8331 25.1054 20.2721 26.1652 21.0535 26.9466C21.8349 27.728 22.8947 28.167 23.9997 28.167C25.1048 28.167 26.1646 27.728 26.946 26.9466C27.7274 26.1652 28.1664 25.1054 28.1664 24.0003H32.3331C32.3331 26.2105 31.4551 28.3301 29.8923 29.8929C28.3295 31.4557 26.2099 32.3337 23.9997 32.3337C21.7896 32.3337 19.67 31.4557 18.1072 29.8929C16.5444 28.3301 15.6664 26.2105 15.6664 24.0003H19.8331Z" fill="#030303"/>
</svg>
